<svg xmlns="http://www.w3.org/2000/svg" width="224" height="224" fill-rule="evenodd" clip-rule="evenodd" image-rendering="optimizeQuality" shape-rendering="geometricPrecision" text-rendering="geometricPrecision" viewBox="0 0 2333 2333" id="avatar">
  <path fill="#fcd786" d="M1173 603c56,1 107,14 157,36 81,-47 196,-83 352,-61 62,-52 139,-79 190,-92 -516,-261 -733,40 -760,81 -1,91 -14,159 -34,212 -18,50 -43,85 -69,110 1,116 13,184 34,231 98,-50 131,-181 132,-328l0 0c0,-16 46,-76 114,-126 -83,-31 -136,-11 -136,-43 0,-11 9,-20 20,-20z"></path>
  <path fill="#fcd786" d="M1975 717c-238,-120 -595,-175 -760,81 -2,126 -26,209 -59,265 -28,47 -62,75 -94,91 24,34 61,59 94,84 78,-50 151,-31 195,-11 -9,-58 -25,-156 -67,-215 -15,-21 18,-44 33,-23 43,60 61,153 71,215 68,-116 202,-110 279,-95 -65,-79 -213,-232 -392,-235 -25,-1 -25,-41 1,-40 181,3 331,145 406,232 -23,-240 188,-323 293,-349z"></path>
  <path fill="#fcd786" d="M1123 1263c-102,-76 -150,-108 -154,-382 -1,-77 -12,-194 -77,-252 -17,15 -39,26 -60,38 -6,13 -15,26 -25,37 91,74 23,179 -21,265 177,56 208,302 51,401 22,15 46,28 72,38 26,-13 58,-31 78,5 4,7 12,25 17,29 65,21 138,42 184,96 84,98 62,257 -60,312 -109,50 -305,-94 -206,-255l-52 -14c-87,162 20,427 231,392 191,-31 288,-186 258,-369 -25,-153 -121,-254 -236,-341z"></path>
  <path fill="#5382aa" d="M804 1343c142,-76 120,-293 -36,-338 -3,9 -6,17 -7,24 -34,142 -24,246 43,314z"></path>
  <path fill="#fcd786" d="M954 1435c-6-9-21 8-34 14l-116 66c-2 2-5 6-1 7l231 61c2 1 4-1 3-3-28-48-55-97-83-145zM690 735l61-36c25-14 43-38 50-65 12-45-3-76-31-108-13-11-31-20-47-24-20 82-107 141-180 111l-8 9 0 0-56 32c-10 6-23 4-29-6-15-26-54-21-62 8-5 21 18 51 29 69l110-64c49-31 97 42 49 76-25 19-78 46-108 63 9 3 19 3 28-2l0 0c16-10 104-64 116-64l0 0 78 1z"></path>
  <path fill="#fcd786" d="M543 485c-80,32 31,167 121,47 5,-6 12,-16 16,-28 -1,1 -15,6 -15,6 -17,4 -31,-15 -23,-30 3,-4 19,-38 9,-80 -20,27 -54,63 -108,85zm17 34c23,-13 43,21 20,34 -22,14 -42,-21 -20,-34z"></path>
  <path fill="#5382aa" d="M879 561l-36 20c2 11 2 22 2 32l10-6c17-9 26-28 24-46zM830 542c37-21 77-34 75-74-28 17-60 34-89 50l14 24zM786 489c44-26 89-53 132-76 16-10 25-29 23-47l-183 106 28 17z"></path>
  <path fill="#3d3d3d" d="M954 1413c-21,-36 -52,-18 -78,-5 -26,-10 -51,-23 -73,-38 158,-99 127,-345 -51,-401 45,-86 113,-191 22,-265 10,-11 18,-24 24,-37 22,-12 44,-23 60,-38 66,58 76,175 77,252 5,274 53,306 154,382 116,87 211,188 236,341 31,183 -66,338 -258,369 -210,35 -317,-230 -230,-392l52 14c-100,161 97,305 206,255 122,-55 144,-214 59,-312 -46,-54 -118,-75 -183,-96 -5,-4 -13,-22 -17,-29zm-407 -860c23,-13 3,-47 -20,-34 -23,13 -3,48 20,34zm1157 585l0 0zm-873 294c-45,25 -96,56 -101,76 -7,23 7,46 30,52l37 10c-94,193 36,482 277,442 346,-57 372,-445 164,-672 -30,-31 -56,-55 -81,-76 97,-52 173,21 185,24 9,3 23,-2 25,-13 59,-197 290,-120 309,-114 15,6 32,-7 28,-23 -97,-339 278,-390 298,-392 19,-2 26,-28 8,-38l0 0c-115,-64 -217,-102 -307,-121 85,-57 187,-71 197,-72 18,-2 25,-28 8,-38l0 0c-603,-335 -849,46 -865,72 -8,11 -13,157 -35,216 -10,26 -22,48 -35,66 -6,-82 -27,-181 -93,-236 7,-18 7,-38 1,-57 27,-23 37,-59 27,-93 39,-25 52,-77 28,-118l0 0c-6,-10 -19,-13 -29,-6l-217 125c-6,-9 -21,-12 -30,-4 2,-27 -2,-61 -22,-97l0 0c-9,-14 -30,-11 -36,4 -4,8 -33,69 -107,99 -67,27 -67,99 -20,143l-36 21c-63,-62 -160,21 -114,91l34 59c5,10 17,13 27,7l129 -74c6,-3 11,6 5,9l-129 75c-9,5 -13,17 -7,27l0 0c20,34 62,45 97,27 31,-15 71,-41 102,-59 13,-4 76,5 89,-2l0 0 71 -41c93,72 -35,203 -55,289 -37,159 -23,276 58,354 2,8 8,10 14,13 22,18 46,33 71,45zm55 17c14,-6 29,-23 34,-14 28,48 56,97 84,145 1,2 -1,4 -4,3l-230 -61c-4,-1 -1,-5 1,-7l115 -66zm236 -386c33,-56 58,-139 60,-265 165,-256 522,-201 759,-81 -104,26 -316,109 -292,349 -75,-87 -225,-229 -406,-232 -26,-1 -27,39 -1,40 178,3 327,156 392,235 -77,-15 -211,-21 -280,95 -10,-62 -27,-155 -71,-215 -15,-21 -47,2 -32,23 42,59 57,157 67,215 -44,-20 -117,-39 -195,11 -33,-25 -70,-50 -94,-84 32,-16 66,-44 93,-91zm-113 57c-21,-47 -32,-115 -34,-231 26,-25 51,-60 70,-110 19,-53 33,-121 34,-212 26,-41 244,-342 760,-81 -51,13 -128,40 -190,92 -156,-22 -272,14 -353,61 -49,-22 -101,-35 -156,-36 -11,0 -20,9 -20,20 -1,32 53,12 136,43 -69,50 -114,110 -114,126l0 0c-2,147 -34,278 -133,328zm-274 -115c155,45 178,262 36,338 -67,-68 -77,-172 -44,-314 2,-7 5,-15 8,-24zm-318 -357l0 0zm240 87l-79 -1 0 0c-11,0 -99,54 -116,64l0 0c-8,5 -19,5 -27,2 29,-17 82,-44 107,-63 49,-34 1,-107 -48,-76l-111 64c-10,-18 -34,-48 -28,-69 8,-29 47,-34 62,-8 6,10 19,12 29,6l56 -32 0 0 8 -9c72,30 159,-29 180,-111 16,4 34,13 46,24 29,32 44,63 32,108 -7,27 -26,51 -50,65l-61 36zm215 -267c2,40 -39,53 -75,74l-14 -24c28,-16 60,-33 89,-50zm-119 21l-28 -17 183 -106c1,18 -7,37 -23,47 -44,23 -88,50 -132,76zm68 118l0 0zm0 0l-10 6c1,-10 0,-21 -2,-32l36 -20c2,18 -7,37 -24,46zm-190 -75c-90,120 -201,-15 -121,-47 53,-22 88,-58 107,-85 10,42 -6,76 -8,80 -8,15 5,34 23,30 0,0 14,-5 15,-6 -5,12 -11,22 -16,28zm412 1060c7,-27 -25,-72 -40,-98 45,17 94,38 121,70 67,78 52,206 -46,250 -75,34 -242,-75 -148,-208l60 16c23,6 47,-8 53,-30z"></path>
</svg>
